<?xml version="1.0" encoding="UTF-8"?>
<svg xmlns="http://www.w3.org/2000/svg" xmlns:xlink="http://www.w3.org/1999/xlink" width="96pt" height="96pt" viewBox="0 0 96 96" version="1.1">
<g id="surface1">
<path style=" stroke:none;fill-rule:nonzero;fill:#000000;fill-opacity:1;" d="M 48 8 C 25.953125 8 8 25.953125 8 48 C 8 70.046875 25.953125 88 48 88 C 70.046875 88 88 70.046875 88 48 C 88 25.953125 70.046875 8 48 8 Z M 48 16 C 65.71875 16 80 30.28125 80 48 C 80 65.71875 65.71875 80 48 80 C 30.28125 80 16 65.71875 16 48 C 16 30.28125 30.28125 16 48 16 Z M 44 24 L 44 49.65625 L 61.171875 66.828125 L 66.828125 61.171875 L 52 46.34375 L 52 24 Z "/>
</g>
</svg>
