<?xml version="1.0" encoding="UTF-8"?>
<svg xmlns="http://www.w3.org/2000/svg" xmlns:xlink="http://www.w3.org/1999/xlink" width="480pt" height="480pt" viewBox="0 0 480 480" version="1.1">
<g id="surface1">
<path style=" stroke:none;fill-rule:nonzero;fill:#000000;fill-opacity:1;" d="M 173.683594 47.367188 C 156.230469 47.367188 142.105469 61.492188 142.105469 78.949219 C 142.105469 79.195313 142.230469 79.503906 142.230469 79.75 C 139.515625 79.441406 136.925781 78.949219 134.210938 78.949219 C 94.984375 78.949219 63.15625 110.773438 63.15625 150 C 63.15625 157.464844 64.578125 164.433594 66.734375 171.21875 C 54.277344 179.542969 44.40625 191.386719 38.300781 205.261719 L 126.316406 205.261719 L 126.316406 169.304688 C 116.941406 163.816406 110.527344 153.761719 110.527344 142.105469 C 110.527344 124.652344 124.652344 110.527344 142.105469 110.527344 C 159.558594 110.527344 173.683594 124.652344 173.683594 142.105469 C 173.683594 153.761719 167.269531 163.816406 157.894531 169.304688 L 157.894531 221.050781 C 157.894531 229.8125 150.800781 236.84375 142.105469 236.84375 L 31.578125 236.84375 C 31.578125 264.226563 45.519531 288.34375 66.734375 302.46875 C 64.578125 309.25 63.15625 316.222656 63.15625 323.683594 C 63.15625 360.445313 91.222656 390.359375 127.054688 393.996094 C 130.449219 412.375 146.421875 426.316406 165.789063 426.316406 C 187.625 426.316406 205.261719 408.675781 205.261719 386.84375 L 205.261719 331.578125 L 169.304688 331.578125 C 163.816406 340.953125 153.761719 347.367188 142.105469 347.367188 C 124.652344 347.367188 110.527344 333.246094 110.527344 315.789063 C 110.527344 298.335938 124.652344 284.210938 142.105469 284.210938 C 153.761719 284.210938 163.816406 290.625 169.304688 300 L 205.261719 300 L 205.261719 78.949219 C 205.261719 61.492188 191.140625 47.367188 173.683594 47.367188 Z M 268.421875 47.367188 C 250.964844 47.367188 236.84375 61.492188 236.84375 78.949219 L 236.84375 142.105469 L 272.800781 142.105469 C 278.289063 132.730469 288.34375 126.316406 300 126.316406 C 317.453125 126.316406 331.578125 140.441406 331.578125 157.894531 C 331.578125 175.347656 317.453125 189.472656 300 189.472656 C 288.34375 189.472656 278.289063 183.058594 272.800781 173.683594 L 236.84375 173.683594 L 236.84375 386.84375 C 236.84375 408.675781 254.480469 426.316406 276.316406 426.316406 C 295.683594 426.316406 311.65625 412.375 315.050781 393.996094 C 342.867188 391.160156 366.671875 373.089844 375.308594 347.367188 L 300 347.367188 C 291.304688 347.367188 284.210938 340.335938 284.210938 331.578125 L 284.210938 295.621094 C 274.835938 290.132813 268.421875 280.078125 268.421875 268.421875 C 268.421875 250.964844 282.546875 236.84375 300 236.84375 C 317.453125 236.84375 331.578125 250.964844 331.578125 268.421875 C 331.578125 280.078125 325.164063 290.132813 315.789063 295.621094 L 315.789063 315.789063 L 378.390625 315.789063 C 376.851563 300.988281 372.59375 294.632813 372.59375 294.632813 C 394.921875 284.890625 410.527344 262.683594 410.527344 236.84375 C 410.527344 209.457031 396.585938 185.339844 375.371094 171.21875 C 377.527344 164.433594 378.949219 157.464844 378.949219 150 C 378.949219 110.773438 347.121094 78.949219 307.894531 78.949219 C 305.179688 78.949219 302.589844 79.441406 299.9375 79.75 C 299.9375 79.503906 300 79.195313 300 78.949219 C 300 61.492188 285.875 47.367188 268.421875 47.367188 Z "/>
</g>
</svg>
