<svg xmlns="http://www.w3.org/2000/svg" width="25.868" height="22.884" viewBox="0 0 25.868 22.884">
  <path id="Path_137" data-name="Path 137" d="M8.955,7.879a2.985,2.985,0,1,0,2.985,2.985A2.985,2.985,0,0,0,8.955,7.879Zm0,5.97a2.742,2.742,0,0,0-.9.093,4.752,4.752,0,0,1,.9,2.892c0,.4-.093.785-.093,1.181a5.047,5.047,0,0,1,3.575-2.176A4.013,4.013,0,0,0,8.955,13.849Zm7.959-5.97A2.985,2.985,0,1,0,19.9,10.864,2.985,2.985,0,0,0,16.914,7.879Zm0,5.97a4.013,4.013,0,0,0-3.482,1.99,5.048,5.048,0,0,1,3.576,2.176c0-.4-.094-.785-.094-1.181a4.752,4.752,0,0,1,.9-2.892A2.74,2.74,0,0,0,16.914,13.849Zm-12.934,0a2.985,2.985,0,1,0,2.985,2.985A2.985,2.985,0,0,0,3.98,13.849Zm0,5.97A3.992,3.992,0,0,0,0,23.8v2.177s.995.808,3.98.808,3.98-.808,3.98-.808V23.8A3.992,3.992,0,0,0,3.98,19.818Zm17.909-5.97a2.985,2.985,0,1,0,2.985,2.985A2.986,2.986,0,0,0,21.889,13.849Zm0,5.97a3.993,3.993,0,0,0-3.98,3.979v2.177s.995.808,3.98.808,3.98-.808,3.98-.808V23.8A3.992,3.992,0,0,0,21.889,19.818Zm-8.954-1.99a2.985,2.985,0,1,0,2.985,2.985A2.985,2.985,0,0,0,12.934,17.828Zm0,5.969a3.993,3.993,0,0,0-3.98,3.98v2.176s.995.808,3.98.808,3.979-.808,3.979-.808V27.778A3.993,3.993,0,0,0,12.934,23.8Z" transform="translate(0 -7.879)"/>
</svg>
