<?xml version="1.0" encoding="UTF-8"?>
<svg xmlns="http://www.w3.org/2000/svg" xmlns:xlink="http://www.w3.org/1999/xlink" width="480pt" height="480pt" viewBox="0 0 480 480" version="1.1">
<g id="surface1">
<path style=" stroke:none;fill-rule:nonzero;fill:#000000;fill-opacity:1;" d="M 220 0 L 220 60 L 260 60 L 260 0 Z M 84.453125 56.171875 L 56.171875 84.453125 L 98.59375 126.875 L 126.875 98.59375 Z M 395.546875 56.171875 L 353.125 98.59375 L 381.40625 126.875 L 423.828125 84.453125 Z M 240 100 C 162.65625 100 100 162.65625 100 240 C 100 317.34375 162.65625 380 240 380 C 317.34375 380 380 317.34375 380 240 C 380 162.65625 317.34375 100 240 100 Z M 0 220 L 0 260 L 60 260 L 60 220 Z M 420 220 L 420 260 L 480 260 L 480 220 Z M 98.59375 353.125 L 56.171875 395.546875 L 84.453125 423.828125 L 126.875 381.40625 Z M 381.40625 353.125 L 353.125 381.40625 L 395.546875 423.828125 L 423.828125 395.546875 Z M 220 420 L 220 480 L 260 480 L 260 420 Z "/>
</g>
</svg>
