<svg xmlns="http://www.w3.org/2000/svg" viewBox="0 0 721.17 439.93"><defs><style>.cls-1{fill:#fce292;}.cls-10,.cls-15,.cls-16,.cls-17,.cls-18,.cls-19,.cls-2,.cls-20,.cls-21,.cls-5,.cls-6,.cls-7,.cls-8{fill:none;stroke-miterlimit:10;}.cls-2{stroke:#fce292;}.cls-10,.cls-2,.cls-21,.cls-8{stroke-width:0.97px;}.cls-3{fill:#fad2cf;}.cls-4{fill:#a9d8b5;}.cls-5{stroke:#208e45;}.cls-5,.cls-6{stroke-width:0.97px;}.cls-6{stroke:#a9d8b5;}.cls-7{stroke:#b1c9e9;stroke-width:0.97px;}.cls-8{stroke:#f9bc15;}.cls-9{fill:#dc5144;}.cls-10{stroke:#4daf4e;}.cls-11{fill:#b1c9e9;}.cls-12{fill:#f9bc15;}.cls-13{fill:#4990cd;}.cls-14{fill:#4daf4e;}.cls-15{stroke:#0e6634;}.cls-15,.cls-16,.cls-17,.cls-18{stroke-width:1.05px;}.cls-16{stroke:#e27525;}.cls-17{stroke:#1b50a3;}.cls-18,.cls-19{stroke:#a41e22;}.cls-19{stroke-width:1.04px;}.cls-20{stroke:#f8f9fb;stroke-width:0.96px;}.cls-21{stroke:#4990cd;}</style></defs><title>dar for popal</title><g id="Layer_2" data-name="Layer 2"><g id="Artwork"><path class="cls-1" d="M592.28,57c5.13,0,10.62,11.39,10.62,28.35s-5.49,28.35-10.62,28.35-10.62-11.39-10.62-28.35S587.15,57,592.28,57m0-1c-6.4,0-11.59,13.13-11.59,29.32s5.19,29.33,11.59,29.33,11.59-13.13,11.59-29.33S598.68,56,592.28,56Z"/><line class="cls-2" x1="564.57" y1="75.58" x2="620.11" y2="75.58"/><path class="cls-1" d="M592.28,57a28.35,28.35,0,1,1-28.35,28.35A28.39,28.39,0,0,1,592.28,57m0-1A29.33,29.33,0,1,0,621.6,85.36,29.33,29.33,0,0,0,592.28,56Z"/><line class="cls-2" x1="564.74" y1="95.13" x2="619.93" y2="95.13"/><rect class="cls-3" x="164.15" y="15.79" width="33.91" height="67.7"/><path class="cls-1" d="M304.25,17.68A3.33,3.33,0,1,1,300.92,21a3.34,3.34,0,0,1,3.33-3.33m0-1a4.3,4.3,0,1,0,4.3,4.3,4.3,4.3,0,0,0-4.3-4.3Z"/><path class="cls-1" d="M304.25,34.39a3.33,3.33,0,1,1-3.33,3.33,3.34,3.34,0,0,1,3.33-3.33m0-1a4.3,4.3,0,1,0,4.3,4.3,4.3,4.3,0,0,0-4.3-4.3Z"/><path class="cls-1" d="M304.25,1a3.33,3.33,0,1,1-3.33,3.33A3.34,3.34,0,0,1,304.25,1m0-1a4.3,4.3,0,1,0,4.3,4.3,4.3,4.3,0,0,0-4.3-4.3Z"/><rect class="cls-4" x="24.97" y="178.61" width="5.79" height="5.79" transform="translate(-120.18 72.86) rotate(-45)"/><rect class="cls-5" x="14.57" y="168.2" width="5.79" height="5.79" transform="translate(126.1 37.77) rotate(45)"/><rect class="cls-6" x="1.89" y="155.52" width="5.79" height="5.79" transform="translate(113.42 43.02) rotate(45)"/><polyline class="cls-7" points="486.26 26.2 503.92 43.86 521.57 26.2"/><line class="cls-8" x1="329.73" y1="78.23" x2="329.73" y2="57.79"/><line class="cls-8" x1="321.2" y1="71.76" x2="321.2" y2="55.2"/><line class="cls-8" x1="312.68" y1="71.76" x2="312.68" y2="53.26"/><line class="cls-8" x1="304.16" y1="71.76" x2="304.16" y2="37.72"/><line class="cls-8" x1="296.44" y1="82.57" x2="291.17" y2="63.02"/><path class="cls-8" d="M296.44,82.57a16.93,16.93,0,0,0,33.29-4.34"/><polygon class="cls-6" points="388.45 65.4 404.68 56.03 388.45 46.66 388.45 65.4"/><path class="cls-9" d="M218.21,38.4V67.62l-6.46-6.46-.28-.28h-31V38.4h37.71m1-1H179.53V61.85h31.54L219.18,70V37.43Z"/><path class="cls-6" d="M259,377.24a11.26,11.26,0,0,1,22.51,0V402.8h20.08"/><path class="cls-10" d="M300.2,377.24a11.26,11.26,0,0,1,22.51,0"/><path class="cls-4" d="M312.58,418.19a21.74,21.74,0,0,1-43.48,0Z"/><rect class="cls-11" x="450.17" y="92.31" width="21.28" height="21.28" transform="translate(62.17 356) rotate(-45)"/><rect class="cls-6" x="664.13" y="222.81" width="44.64" height="28.28"/><rect class="cls-11" x="160.49" y="286.79" width="6.89" height="6.89"/><circle class="cls-4" cx="684.63" cy="152.96" r="4.06"/><circle class="cls-7" cx="19.33" cy="251.09" r="4.06"/><path class="cls-9" d="M378.49,387.85a3.09,3.09,0,1,1-3.09,3.09,3.1,3.1,0,0,1,3.09-3.09m0-1a4.06,4.06,0,1,0,4.06,4.06,4.06,4.06,0,0,0-4.06-4.06Z"/><circle class="cls-3" cx="411.11" cy="390.95" r="4.06"/><path class="cls-9" d="M443.73,387.85a3.09,3.09,0,1,1-3.09,3.09,3.1,3.1,0,0,1,3.09-3.09m0-1a4.06,4.06,0,1,0,4.06,4.06,4.06,4.06,0,0,0-4.06-4.06Z"/><circle class="cls-2" cx="537.04" cy="290.24" r="4.06"/><circle class="cls-8" cx="88.1" cy="326.11" r="14.32"/><line class="cls-7" x1="177.4" y1="355.23" x2="177.4" y2="376.24"/><line class="cls-7" x1="166.89" y1="365.74" x2="187.9" y2="365.74"/><rect class="cls-3" x="348.67" y="166.17" width="29.62" height="73.09"/><rect class="cls-11" x="581.88" y="166.17" width="29.62" height="73.09"/><rect class="cls-4" x="85.75" y="166.17" width="29.62" height="73.09"/><path class="cls-12" d="M196,239.26h0V166.17h0a26.14,26.14,0,0,0-26.14,26.14v20.82A26.14,26.14,0,0,0,196,239.26Z"/><rect class="cls-1" x="195.99" y="166.17" width="33.12" height="73.09"/><polygon class="cls-11" points="247.04 166.17 289.24 239.26 289.24 166.17 247.04 166.17"/><polygon class="cls-13" points="331.43 166.17 289.24 166.17 289.24 239.26 289.24 239.26 331.43 166.17"/><path class="cls-14" d="M115.37,166.17a36.54,36.54,0,0,1,0,73.09Z"/><path class="cls-15" d="M115.37,225.31a22.59,22.59,0,1,0,0-45.18H100.56v17.29"/><path class="cls-12" d="M526.57,221a27.41,27.41,0,1,1,0-54.82Z"/><rect class="cls-9" x="378.29" y="166.17" width="24.37" height="18.27"/><rect class="cls-13" x="563.26" y="166.17" width="18.62" height="18.27"/><rect class="cls-13" x="611.51" y="166.17" width="18.62" height="18.27"/><rect class="cls-9" x="378.29" y="202.72" width="18.27" height="18.27"/><rect class="cls-12" x="526.57" y="166.17" width="24.36" height="18.27"/><path class="cls-1" d="M526.57,184.45V221H502.21v18.27h24.36a27.41,27.41,0,1,0,0-54.82Z"/><path class="cls-16" d="M513.79,206.64a18.27,18.27,0,0,1,12.78-31.33h13.7"/><line class="cls-17" x1="572.57" y1="175.49" x2="620.82" y2="175.49"/><path class="cls-14" d="M446.22,239.26h0V166.17h0a26.14,26.14,0,0,0-26.14,26.14v20.82A26.14,26.14,0,0,0,446.22,239.26Z"/><rect class="cls-4" x="446.22" y="166.17" width="33.12" height="73.09"/><line class="cls-15" x1="438.07" y1="191.68" x2="433.35" y2="191.65"/><line class="cls-15" x1="479.34" y1="191.72" x2="446.89" y2="191.72"/><line class="cls-15" x1="479.34" y1="213.71" x2="469.65" y2="213.71"/><line class="cls-15" x1="460.81" y1="213.71" x2="453.45" y2="213.71"/><circle class="cls-17" cx="289.24" cy="209.3" r="4.64"/><circle class="cls-17" cx="305.49" cy="181.15" r="4.64"/><line class="cls-17" x1="303.16" y1="185.18" x2="291.53" y2="205.32"/><circle class="cls-17" cx="272.99" cy="181.15" r="4.64"/><line class="cls-17" x1="275.31" y1="185.18" x2="286.94" y2="205.32"/><rect class="cls-15" x="96.81" y="198.97" width="7.49" height="7.49" transform="translate(172.8 -11.73) rotate(45)"/><rect class="cls-15" x="462.11" y="210.59" width="6.25" height="6.25" transform="translate(287.38 -266.37) rotate(45)"/><rect class="cls-15" x="439.45" y="188.6" width="6.25" height="6.25" transform="translate(265.2 -256.79) rotate(45)"/><circle class="cls-17" cx="596.69" cy="190.94" r="4.42"/><circle class="cls-17" cx="596.69" cy="207.88" r="4.42"/><circle class="cls-17" cx="596.69" cy="224.82" r="4.42"/><path class="cls-16" d="M517.93,230.13h8.64a18.27,18.27,0,1,0,0-36.54"/><polyline class="cls-18" points="382.3 211.79 363.48 211.79 363.48 230.62"/><polyline class="cls-19" points="390.44 175.3 363.48 175.3 363.48 202.26"/><line class="cls-16" x1="229.11" y1="191.72" x2="195.85" y2="191.72"/><line class="cls-16" x1="229.11" y1="202.72" x2="195.85" y2="202.72"/><line class="cls-16" x1="229.11" y1="213.71" x2="195.85" y2="213.71"/><path class="cls-20" d="M453.48,271.55a18.27,18.27,0,0,1,18.27,18.27V308.1a18.27,18.27,0,0,1-18.27,18.27h-13.7"/><path class="cls-20" d="M329.31,271.55a18.27,18.27,0,0,1,18.27,18.27V308.1a18.27,18.27,0,1,1-36.54,0V289.82A18.27,18.27,0,0,1,329.31,271.55Z"/><line class="cls-20" x1="391.87" y1="271.73" x2="391.87" y2="326.37"/><polyline class="cls-20" points="273.74 326.37 246.56 326.37 246.56 317.23"/><path class="cls-20" d="M246.56,317.23a12.79,12.79,0,0,1,12.79-12.79,16.44,16.44,0,0,0,0-32.89H246.56"/><path class="cls-20" d="M453.48,271.55a18.27,18.27,0,1,0,18.27,18.27"/><rect class="cls-3" x="597.7" y="299.26" width="18.13" height="18.13"/><path class="cls-10" d="M630.08,347.65l13.55,13.55a16.93,16.93,0,0,0,23.94-23.94l-11.71-11.71"/><line class="cls-10" x1="648.98" y1="329.68" x2="657.57" y2="338.26"/><line class="cls-10" x1="641.66" y1="334.25" x2="651.62" y2="344.21"/><line class="cls-10" x1="621.81" y1="326.3" x2="645.67" y2="350.16"/><rect class="cls-11" x="517.4" y="345.76" width="27.44" height="67.7"/><path class="cls-21" d="M534,383.86"/><line class="cls-21" x1="526.71" y1="396.24" x2="508.09" y2="396.24"/><line class="cls-21" x1="526.71" y1="381.73" x2="508.09" y2="381.73"/><rect class="cls-10" x="676.05" y="236.7" width="44.64" height="28.28"/><path class="cls-7" d="M104.5,133.89A20.78,20.78,0,0,0,75.11,104.5l-9.64,9.64"/><rect class="cls-3" x="207.3" y="115.27" width="6.89" height="6.89" transform="translate(-22.22 183.79) rotate(-45)"/></g></g></svg>