<?xml version="1.0" encoding="utf-8"?>
<!-- Generator: Adobe Illustrator 21.1.0, SVG Export Plug-In . SVG Version: 6.00 Build 0)  -->
<svg version="1.1" id="Layer_1" xmlns="http://www.w3.org/2000/svg" xmlns:xlink="http://www.w3.org/1999/xlink" x="0px" y="0px"
	 viewBox="0 0 1024 1040" enable-background="new 0 0 1024 1040" xml:space="preserve">
<g id="surface1">
	<path d="M511.59,20c-276.17,0-500,223.83-500,500s223.83,500,500,500s500-223.83,500-500S787.76,20,511.59,20z M511.59,120
		c220.51,0,400,179.49,400,400v50c0,82.62-67.38,150-150,150c-46.09,0-86.72-21.29-114.26-53.91
		c-35.74,33.2-83.2,53.91-135.74,53.91c-110.35,0-200-89.65-200-200s89.65-200,200-200s200,89.65,200,200v50c0,27.54,22.46,50,50,50
		s50-22.46,50-50v-50c0-165.43-134.57-300-300-300s-300,134.57-300,300s134.57,300,300,300h50c27.54,0,50,22.46,50,50
		s-22.46,50-50,50h-50c-220.51,0-400-179.49-400-400S291.08,120,511.59,120z M511.59,420c-55.27,0-100,44.73-100,100
		s44.73,100,100,100s100-44.73,100-100S566.87,420,511.59,420z"/>
</g>
</svg>
