<?xml version="1.0" encoding="utf-8"?>
<!-- Generator: Adobe Illustrator 21.1.0, SVG Export Plug-In . SVG Version: 6.00 Build 0)  -->
<svg version="1.1" id="Layer_1" xmlns="http://www.w3.org/2000/svg" xmlns:xlink="http://www.w3.org/1999/xlink" x="0px" y="0px"
	 width="1024px" height="1024px" viewBox="0 0 1024 1024" enable-background="new 0 0 1024 1024" xml:space="preserve">
<g id="Layer_2_1_">
	<g id="Artwork">
		<path fill="#FABB04" d="M597.44,608.93l295.98-170.89c40.63-23.46,92.58-9.54,116.04,31.09l0,0
			c23.46,40.63,9.54,92.58-31.09,116.04L682.39,756.06c-40.63,23.46-92.58,9.54-116.04-31.09l0,0
			C542.89,684.34,556.82,632.39,597.44,608.93z"/>
		<path fill="#0F9D57" d="M685.53,266.03l295.98,170.89c40.63,23.46,54.55,75.41,31.09,116.04l0,0
			c-23.46,40.63-75.41,54.55-116.04,31.09L600.58,413.17c-40.63-23.46-54.55-75.41-31.09-116.04l0,0
			C592.95,256.5,644.9,242.58,685.53,266.03z"/>
		<path fill="#EA4335" d="M426.61,415.03L130.63,585.91C90,609.37,38.04,595.45,14.59,554.82l0,0
			c-23.46-40.63-9.54-92.58,31.09-116.04l295.99-170.89c40.63-23.46,92.58-9.54,116.04,31.09l0,0
			C481.16,339.62,467.24,391.57,426.61,415.03z"/>
		<path fill="#4084F4" d="M338.47,757.96L42.49,587.08c-40.63-23.46-54.55-75.41-31.1-116.04l0,0
			c23.46-40.63,75.41-54.55,116.04-31.09l295.98,170.89c40.63,23.46,54.55,75.41,31.09,116.04l0,0
			C431.05,767.5,379.1,781.42,338.47,757.96z"/>
	</g>
</g>
</svg>
