<?xml version="1.0" encoding="utf-8"?>
<!-- Generator: Adobe Illustrator 21.1.0, SVG Export Plug-In . SVG Version: 6.00 Build 0)  -->
<svg version="1.1" id="Layer_1" xmlns="http://www.w3.org/2000/svg" xmlns:xlink="http://www.w3.org/1999/xlink" x="0px" y="0px"
	 viewBox="0 0 1024 1040" enable-background="new 0 0 1024 1040" xml:space="preserve">
<g id="surface1">
	<path d="M509.52,24.73c-275.66,0-499.01,223.35-499.01,499.01c0,233.74,160.98,429.47,378.15,483.57
		c-2.44-6.67-3.9-14.45-3.9-24.21v-85.27c-20.3,0-54.25,0-62.69,0c-34.11,0-64.49-14.62-79.28-41.91
		c-16.24-30.38-19.17-76.67-59.61-105.1c-12.03-9.42-2.93-20.14,10.87-18.68c25.67,7.15,46.79,24.69,66.77,50.69
		c19.98,26.15,29.24,31.99,66.44,31.99c18.02,0,44.99-0.97,70.34-5.03c13.64-34.6,37.19-66.44,65.94-81.54
		C297.38,711.19,218.1,628.51,218.1,516.26c0-48.4,20.64-95.03,55.55-134.49c-11.37-38.99-25.82-118.75,4.39-149.12
		c74.88,0,120.04,48.4,130.92,61.56c37.2-12.67,78.13-19.98,121.18-19.98s84.14,7.3,121.5,20.14
		c10.72-12.99,55.88-61.73,130.93-61.73c30.37,30.37,15.75,110.46,4.22,149.44c34.76,39.31,55.23,85.93,55.23,134.17
		c0,112.08-79.28,194.76-245.12,211.99c45.65,23.71,78.95,90.8,78.95,141.16v113.7c0,4.39-0.98,7.48-1.46,11.21
		c194.43-68.23,334.13-252.92,334.13-470.57C1008.52,248.08,785.16,24.73,509.52,24.73z"/>
</g>
</svg>
