<?xml version="1.0" encoding="utf-8"?>
<!-- Generator: Adobe Illustrator 21.1.0, SVG Export Plug-In . SVG Version: 6.00 Build 0)  -->
<svg version="1.1" id="Layer_1" xmlns="http://www.w3.org/2000/svg" xmlns:xlink="http://www.w3.org/1999/xlink" x="0px" y="0px"
	 viewBox="0 0 1024 1040" enable-background="new 0 0 1024 1040" xml:space="preserve">
<path d="M591.9,440.1c21.35,21.34,33.1,49.72,33.1,79.9s-11.75,58.56-33.1,79.9C570.56,621.25,542.18,633,512,633
	s-58.56-11.75-79.9-33.1C410.75,578.56,399,550.18,399,520s11.75-58.56,33.1-79.9c21.34-21.35,49.72-33.1,79.9-33.1
	S570.56,418.75,591.9,440.1z"/>
<path d="M512,20C235.86,20,12,243.86,12,520s223.86,500,500,500s500-223.86,500-500S788.14,20,512,20z M822,649
	c0,99.55-81.45,181-181,181H383c-99.55,0-181-81.45-181-181V391c0-99.55,81.45-181,181-181h258c99.55,0,181,81.45,181,181V649z
	 M641,265H383c-33.46,0-65.04,13.16-88.94,37.06S257,357.54,257,391v258c0,33.46,13.16,65.04,37.06,88.94
	C317.96,761.84,349.54,775,383,775h258c33.46,0,65.04-13.16,88.94-37.06S767,682.46,767,649V391c0-33.46-13.16-65.04-37.06-88.94
	S674.46,265,641,265z M512,688c-92.78,0-168-75.22-168-168s75.22-168,168-168s168,75.22,168,168S604.78,688,512,688z M680,378
	c-14.36,0-26-11.64-26-26s11.64-26,26-26s26,11.64,26,26S694.36,378,680,378z"/>
</svg>
