<?xml version="1.0" encoding="utf-8"?>
<!-- Generator: Adobe Illustrator 21.1.0, SVG Export Plug-In . SVG Version: 6.00 Build 0)  -->
<svg version="1.1" id="Layer_1" xmlns="http://www.w3.org/2000/svg" xmlns:xlink="http://www.w3.org/1999/xlink" x="0px" y="0px"
	 viewBox="0 0 1024 1040" enable-background="new 0 0 1024 1040" xml:space="preserve">
<path d="M512,23.86c-276.1,0-500,223.9-500,500s223.9,500,500,500s500-223.9,500-500S788.1,23.86,512,23.86z M781.5,725.46
	c22.3,0,40.5,18.1,40.5,40.5c0,22.3-18.1,40.5-40.5,40.5c-165.2,0-175.3-87.7-175.3-107.9c0-23.5,2-39.2,8.4-57.3
	c1.5-4.1,96.4-199.6,97.2-201.5c1.6-3.7,2.3-7.5,2.2-11.2c-0.1-10.2-6.1-20-16.1-24.4c-13.7-5.9-29.6,0.3-35.6,13.9
	c0,0-122.5,267.8-127.5,279.2c-10.4,23.8-38.1,34.8-62.2,24.4c-17.9-7.8-28.6-25.4-28.3-43.8c0-6.1,1.3-12.3,3.9-18.3
	c5.3-12.1,75-191.5,75-191.7c1.3-3.2,2-6.6,2-10.2c0-15.8-12.8-28.7-28.7-28.7c-12.2,0-22.8,7.8-26.9,18.5
	c-20,52.5-96.9,256.4-104.3,278.2c-11.4,33.2-42.8,53.5-77,53.8c-9.6,0.1-19.3-1.1-28.8-4.3c-44-15-67.9-61.4-53.5-103.7
	c10.6-31.3,86.2-274.6,95.9-306.8c12.8-42.5,42.9-70.7,103.6-70.7c43.8,0,77.2,27,104.2,27c20.6,0,40.9-53.9,94.8-53.9
	c34.6,0,63.7,21.8,75.3,52.4c0.5,1.4,2.1,1.8,3.2,0.7c19.3-17.2,45-26,73.2-26c33.7,0,65.6,23.5,65.6,77.4
	c0,60.7-37.1,114.6-94.4,246.1c-5.6,12.6-13.5,35.1-13.5,53.9C714.1,695.16,727.6,725.46,781.5,725.46z"/>
</svg>
