<?xml version="1.0" encoding="UTF-8"?>
<svg xmlns="http://www.w3.org/2000/svg" xmlns:xlink="http://www.w3.org/1999/xlink" width="150pt" height="150pt" viewBox="0 0 150 150" version="1.1">
<g id="surface1">
<path style=" stroke:none;fill-rule:nonzero;fill:#BBDEFB;fill-opacity:1;" d="M 134.375 75 C 134.375 72.8125 135.625 70.9375 137.1875 69.6875 C 134.6875 37.8125 107.8125 12.5 75 12.5 C 59.375 12.5 45.3125 18.125 34.375 27.5 C 34.375 27.8125 34.375 27.8125 34.375 28.125 C 34.375 31.5625 31.5625 34.375 28.125 34.375 C 27.8125 34.375 27.8125 34.375 27.5 34.375 C 18.125 45.3125 12.5 59.375 12.5 75 C 12.5 100.625 27.8125 122.5 50 132.1875 C 50.9375 131.5625 52.1875 131.25 53.125 131.25 C 55.9375 131.25 58.125 132.8125 59.0625 135.3125 C 64.0625 136.5625 69.6875 137.5 75 137.5 C 107.8125 137.5 134.6875 112.1875 137.1875 80.3125 C 135.625 79.0625 134.375 77.1875 134.375 75 Z "/>
<path style=" stroke:none;fill-rule:nonzero;fill:#1E88E5;fill-opacity:1;" d="M 69.0625 103.4375 C 67.1875 100.625 67.1875 96.5625 68.4375 93.75 C 66.875 93.75 65 94.375 63.75 95.3125 C 59.375 98.125 57.8125 104.375 61.25 108.75 C 64.0625 113.125 70.3125 114.6875 74.6875 111.25 C 76.25 110.3125 77.1875 108.75 78.125 107.5 C 74.6875 107.8125 70.9375 106.25 69.0625 103.4375 Z "/>
<path style=" stroke:none;fill-rule:nonzero;fill:#1E88E5;fill-opacity:1;" d="M 42.1875 85.3125 C 41.25 82.8125 41.5625 80 43.125 78.125 C 42.1875 78.125 40.625 78.125 39.375 78.75 C 35.625 80.3125 33.75 84.375 35 87.8125 C 36.5625 91.5625 40.625 93.4375 44.0625 92.1875 C 45.625 91.5625 46.5625 90.625 46.875 89.6875 C 45 89.6875 43.125 87.8125 42.1875 85.3125 Z "/>
<path style=" stroke:none;fill-rule:nonzero;fill:#1E88E5;fill-opacity:1;" d="M 60.9375 50 C 61.875 45.9375 65 43.4375 68.75 42.8125 C 67.5 41.875 66.875 41.25 65.3125 40.9375 C 60.3125 39.6875 54.6875 42.8125 53.4375 48.125 C 52.1875 53.4375 55.3125 58.75 60.625 60 C 61.875 60.3125 63.4375 60.3125 64.6875 60 C 61.25 57.5 59.6875 53.4375 60.9375 50 Z "/>
<path style=" stroke:none;fill-rule:nonzero;fill:#1E88E5;fill-opacity:1;" d="M 134.375 75 C 134.375 72.8125 135.625 70.9375 137.1875 69.6875 C 134.6875 37.8125 107.8125 12.5 75 12.5 C 75 12.5 86.5625 19.0625 95.625 34.375 C 95.9375 34.375 96.25 34.375 96.875 34.375 C 102.1875 34.375 106.25 38.4375 106.25 43.75 C 106.25 46.5625 105 49.0625 102.8125 50.9375 C 103.4375 52.8125 103.75 54.375 104.375 56.25 C 107.1875 56.875 109.375 59.375 109.375 62.5 C 109.375 65 108.125 66.875 105.9375 68.125 C 106.25 70.3125 106.25 72.5 106.25 75 C 106.25 92.1875 101.5625 105.625 95.9375 115.3125 C 96.5625 116.25 96.875 117.5 96.875 118.75 C 96.875 122.1875 94.0625 125 90.625 125 C 90 125 89.6875 125 89.0625 124.6875 C 81.875 133.4375 75 137.5 75 137.5 C 107.8125 137.5 134.6875 112.1875 137.1875 80.3125 C 135.625 79.0625 134.375 77.1875 134.375 75 Z M 117.1875 103.125 C 115.9375 103.125 115 102.8125 114.0625 102.5 C 116.875 101.25 118.75 98.4375 118.75 95.3125 C 118.75 92.1875 116.875 89.375 114.0625 88.125 C 115 87.8125 115.9375 87.5 117.1875 87.5 C 121.5625 87.5 125 90.9375 125 95.3125 C 125 99.6875 121.5625 103.125 117.1875 103.125 Z "/>
</g>
</svg>
