<?xml version="1.0" encoding="UTF-8"?>
<svg xmlns="http://www.w3.org/2000/svg" xmlns:xlink="http://www.w3.org/1999/xlink" width="96pt" height="96pt" viewBox="0 0 96 96" version="1.1">
<g id="surface1">
<path style=" stroke:none;fill-rule:nonzero;fill:#FFFFFF;fill-opacity:1;" d="M 48 4 C 41.421875 4 36 9.421875 36 16 C 36 17.40625 36.296875 18.734375 36.75 20 L 12 20 C 7.59375 20 4 23.59375 4 28 L 4 76 C 4 80.40625 7.59375 84 12 84 L 84 84 C 88.40625 84 92 80.40625 92 76 L 92 28 C 92 23.59375 88.40625 20 84 20 L 59.25 20 C 59.703125 18.734375 60 17.40625 60 16 C 60 9.421875 54.578125 4 48 4 Z M 48 12 C 50.25 12 52 13.75 52 16 C 52 18.25 50.25 20 48 20 C 45.75 20 44 18.25 44 16 C 44 13.75 45.75 12 48 12 Z M 12 28 L 84 28 L 84 76 L 12 76 Z M 36 36 C 31.578125 36 28 39.578125 28 44 C 28 48.421875 31.578125 52 36 52 C 40.421875 52 44 48.421875 44 44 C 44 39.578125 40.421875 36 36 36 Z M 60 40 L 60 48 L 76 48 L 76 40 Z M 36 56 C 27.265625 56 20 59.640625 20 64.875 L 20 68 L 52 68 L 52 64.875 C 52 59.640625 44.734375 56 36 56 Z M 60 56 L 60 64 L 76 64 L 76 56 Z "/>
</g>
</svg>
