<?xml version="1.0" encoding="UTF-8"?>
<svg xmlns="http://www.w3.org/2000/svg" xmlns:xlink="http://www.w3.org/1999/xlink" width="512pt" height="512pt" viewBox="0 0 512 512" version="1.1">
<g id="surface1">
<path style=" stroke:none;fill-rule:nonzero;fill:#000000;fill-opacity:1;" d="M 256 48 C 212 48 176 84 176 128 C 176 153 187.875 175.3125 206 190 C 178.375 206.8125 160 237.1875 160 272 L 192 272 C 192 235.5625 219.5625 208 256 208 C 292.4375 208 320 235.5625 320 272 L 352 272 C 352 237.1875 333.625 206.8125 306 190 C 324.125 175.3125 336 153 336 128 C 336 84 300 48 256 48 Z M 256 80 C 282.6875 80 304 101.3125 304 128 C 304 154.6875 282.6875 176 256 176 C 229.3125 176 208 154.6875 208 128 C 208 101.3125 229.3125 80 256 80 Z M 400 176 C 382.3125 176 368 190.3125 368 208 C 368 219.8125 374.4375 229.9375 384 235.5 L 384 272 L 416 272 L 416 235.5 C 425.5625 229.9375 432 219.8125 432 208 C 432 190.3125 417.6875 176 400 176 Z M 64 288 L 64 320 L 102.5 320 L 128 384 L 160 384 L 160 448 L 192 448 L 192 384 L 320 384 L 320 448 L 352 448 L 352 384 L 384 384 L 409.5 320 L 448 320 L 448 288 Z M 134.5 320 L 377.5 320 L 365 352 L 147 352 Z "/>
</g>
</svg>
