<?xml version="1.0" encoding="utf-8"?>
<!-- Generator: Adobe Illustrator 21.1.0, SVG Export Plug-In . SVG Version: 6.00 Build 0)  -->
<svg version="1.1" id="Layer_1" xmlns="http://www.w3.org/2000/svg" xmlns:xlink="http://www.w3.org/1999/xlink" x="0px" y="0px"
	 viewBox="0 0 1024 1040" enable-background="new 0 0 1024 1040" xml:space="preserve">
<path d="M512,23.14c-275.92,0-499.59,223.67-499.59,499.59S236.08,1022.32,512,1022.32s499.59-223.67,499.59-499.59
	S787.92,23.14,512,23.14z M748.13,730.26l-17.42,15.27c-12.22,12.64-51.37,47.32-116.03,48.07
	c-77.79,0.83-160.04-47.73-243.95-144.43C286.76,552.54,250,464.42,261.64,387.54c9.66-64.08,49.47-97.86,63.76-108.18l17.42-15.28
	c32.21-27.91,57.65-4.13,80.93,32.04l13.96,21.97c23.21,36.34,35.34,71.6,3.22,99.6l-19.4,16.93
	c-14.2,12.14-74.58,30.3,26.92,146.91c101.49,116.86,127.76,59.55,141.88,47.24l19.33-16.84c32.28-28,65.56-10.98,98.26,17.01
	l19.65,16.93C760.35,673.86,780.34,702.34,748.13,730.26z"/>
</svg>
