<?xml version="1.0" encoding="utf-8"?>
<!-- Generator: Adobe Illustrator 21.1.0, SVG Export Plug-In . SVG Version: 6.00 Build 0)  -->
<svg version="1.1" id="Layer_1" xmlns="http://www.w3.org/2000/svg" xmlns:xlink="http://www.w3.org/1999/xlink" x="0px" y="0px"
	 viewBox="0 0 1024 1040" enable-background="new 0 0 1024 1040" xml:space="preserve">
<title>twitter</title>
<g id="Layer_2">
	<g id="Layer_1-2">
		<path d="M512,20C235.86,20,12,243.86,12,520s223.86,500,500,500s500-223.86,500-500S788.14,20,512,20z M760.2,411.31
			c-1.5,294-256.83,366.4-256.83,366.4c-170.25,49-302.75-43.5-302.75-43.5c119.5,10.5,187.5-52.5,187.5-52.5
			c-99-10-118-89.5-118-89.5c41,5,53-3,53-3c-105-31-96.86-126.5-96.86-126.5c24.14,15.5,55.36,14,55.36,14
			c-96-69.5-38-167.5-38-167.5c129,144.5,263,131.5,263,131.5c-18-70.5,35-121,35-121c102-81,184.5,5,184.5,5c42.5-7.5,80-30,80-30
			c-13.75,47.25-55.5,69.5-55.5,69.5c24.25,0.25,72.75-18.5,72.75-18.5C803.13,380.47,760.2,411.31,760.2,411.31z"/>
	</g>
</g>
</svg>
