<svg xmlns="http://www.w3.org/2000/svg" width="24.978" height="28.237" viewBox="0 0 24.978 28.237">
  <path id="Path_139" data-name="Path 139" d="M14.661,31.578a1.629,1.629,0,0,0-1.629,1.629V43.524H11.946V35.379a1.629,1.629,0,1,0-3.258,0V50.885a48.587,48.587,0,0,0-4.7-2.711,3.437,3.437,0,0,0-1.366-.305A2.465,2.465,0,0,0,0,50.041L4.344,53.3l3.479,4.174a6.51,6.51,0,0,0,5.006,2.342h7.806a4.341,4.341,0,0,0,4.344-4.344V38.637a1.629,1.629,0,1,0-3.258,0v4.887H20.634V35.379a1.629,1.629,0,1,0-3.258,0v8.145H16.29V33.207A1.63,1.63,0,0,0,14.661,31.578Z" transform="translate(0 -31.578)"/>
</svg>
