<?xml version="1.0" encoding="UTF-8"?>
<svg xmlns="http://www.w3.org/2000/svg" xmlns:xlink="http://www.w3.org/1999/xlink" width="480pt" height="480pt" viewBox="0 0 480 480" version="1.1">
<g id="surface1">
<path style=" stroke:none;fill-rule:nonzero;fill:#000000;fill-opacity:1;" d="M 236.84375 47.367188 C 132.359375 47.367188 47.367188 132.359375 47.367188 236.84375 C 47.367188 341.324219 132.359375 426.316406 236.84375 426.316406 C 253.25 426.316406 269.039063 424.035156 284.210938 420.085938 L 284.210938 337.253906 C 271.75 372.71875 253.804688 394.738281 236.84375 394.738281 C 216.671875 394.738281 194.902344 363.773438 182.9375 315.789063 L 284.210938 315.789063 L 284.210938 284.210938 L 176.890625 284.210938 C 174.792969 269.40625 173.683594 253.496094 173.683594 236.84375 C 173.683594 220.066406 175.101563 204.398438 177.199219 189.472656 L 296.484375 189.472656 C 298.582031 204.398438 300 220.066406 300 236.84375 C 300 241.160156 299.691406 245.292969 299.566406 249.484375 C 308.019531 241.714844 319.183594 236.84375 331.578125 236.84375 C 331.578125 220.3125 330.53125 204.523438 328.679688 189.472656 L 387.398438 189.472656 C 392.144531 204.460938 394.738281 220.3125 394.738281 236.84375 C 394.738281 247.820313 393.503906 258.492188 391.34375 268.851563 L 418.976563 288.527344 C 423.664063 272.058594 426.316406 254.789063 426.316406 236.84375 C 426.316406 132.359375 341.324219 47.367188 236.84375 47.367188 Z M 236.84375 78.949219 C 256.949219 78.949219 278.414063 110.09375 290.441406 157.894531 L 183.246094 157.894531 C 195.269531 110.09375 216.734375 78.949219 236.84375 78.949219 Z M 174.671875 91.777344 C 164.1875 109.539063 155.859375 132.050781 150.246094 157.894531 L 100.164063 157.894531 C 117.1875 128.597656 143.339844 105.222656 174.671875 91.777344 Z M 299.011719 91.777344 C 330.34375 105.222656 356.496094 128.597656 373.519531 157.894531 L 323.4375 157.894531 C 317.824219 132.050781 309.5 109.539063 299.011719 91.777344 Z M 86.226563 189.472656 L 144.941406 189.472656 C 143.152344 204.523438 142.105469 220.3125 142.105469 236.84375 C 142.105469 253.371094 143.152344 269.160156 144.941406 284.210938 L 86.226563 284.210938 C 81.539063 269.222656 78.949219 253.371094 78.949219 236.84375 C 78.949219 220.3125 81.539063 204.460938 86.226563 189.472656 Z M 331.824219 268.234375 C 327.261719 268.113281 322.945313 270.023438 319.859375 273.355469 C 316.777344 276.6875 315.296875 281.1875 315.789063 285.691406 L 315.789063 426.316406 C 315.789063 435.011719 322.882813 442.105469 331.578125 442.105469 C 336.144531 442.105469 340.152344 440.132813 342.988281 437.046875 L 343.113281 437.109375 L 372.78125 401.953125 L 404.296875 464.988281 C 408.183594 472.757813 417.679688 475.90625 425.515625 472.019531 C 433.285156 468.132813 436.429688 458.636719 432.546875 450.800781 L 400.410156 386.59375 L 446.484375 378.332031 L 446.484375 378.023438 C 453.023438 376.171875 457.894531 370.3125 457.894531 363.15625 C 457.894531 357.667969 454.871094 353.042969 450.554688 350.207031 L 450.679688 349.898438 L 342.679688 272.863281 C 339.78125 269.964844 335.894531 268.296875 331.824219 268.234375 Z M 100.289063 315.789063 L 150.183594 315.789063 C 155.796875 341.632813 164.1875 364.144531 174.671875 381.90625 C 143.339844 368.460938 117.3125 345.085938 100.289063 315.789063 Z "/>
</g>
</svg>
