<?xml version="1.0" encoding="utf-8"?>
<!-- Generator: Adobe Illustrator 21.1.0, SVG Export Plug-In . SVG Version: 6.00 Build 0)  -->
<svg version="1.1" id="Layer_1" xmlns="http://www.w3.org/2000/svg" xmlns:xlink="http://www.w3.org/1999/xlink" x="0px" y="0px"
	 viewBox="0 0 1024 1040" enable-background="new 0 0 1024 1040" xml:space="preserve">
<g>
	<path d="M311.5,732.1c16.3,15.4,34.2,29.1,53.7,40.5c-8.2-12.4-15.5-26.1-22.3-40.5H311.5z"/>
	<path d="M510.8,811.5c41,0,79-30.5,107.5-79.4h-215C431.8,781,469.7,811.5,510.8,811.5z"/>
	<path d="M510.8,229.4c-41,0-79,30.5-107.5,79.4h215C589.7,259.9,551.8,229.4,510.8,229.4z"/>
	<path d="M365.2,268.2c-19.5,11.4-37.4,25.1-53.7,40.5h31.4C349.7,294.4,357.1,280.7,365.2,268.2z"/>
	<path d="M511.6,17.7c-276.4,0-500.4,224-500.4,500.4s224,500.4,500.4,500.4s500.4-224,500.4-500.4S788,17.7,511.6,17.7z
		 M510.8,176.5c152.7,0,282.7,100.2,327.4,238.1H782c-7.5-19-17.1-36.9-28.1-53.7c-1.7,0.3-3.2,0.8-5,0.8h-49.6
		c5.3,16.7,9.6,34.6,13.2,52.9h-54.6c-4.1-18.5-8.9-36.4-14.9-52.9H378.5c-6,16.5-10.8,34.4-14.9,52.9H309
		c3.6-18.3,8-36.2,13.2-52.9h-49.6c-1.8,0-3.3-0.5-5-0.8c-11.2,16.8-20.7,34.7-28.1,53.7h-56.2C228.1,276.6,358,176.5,510.8,176.5z
		 M618.3,473.3l-44.7,100c-1,2.5-3.6,4.1-6.6,4.1h-22.3c-3,0-5.6-1.7-6.6-4.1l-21.5-48c-2.1-4.8-3.2-8.8-5-13.2
		c-2,5-3.8,9.7-5.8,14.1l-22.3,47.1c-1.1,2.4-3.6,4.1-6.6,4.1h-23.1c-3.1,0-5.6-1.7-6.6-4.1l-41.3-100c-0.8-2-0.5-4,0.8-5.8
		c0.7-0.8,2.3-2,3.3-2.5s2.2,0,3.3,0H438c3.2,0,6.5,1.4,7.4,4.1l18.2,50.4c1.5,4.2,2.8,8.6,4.1,12.4c1.5-3.8,3.1-8.1,5-12.4
		l22.3-50.4c1-2.5,3.6-4.1,6.6-4.1h20.7c3,0,6.4,1.7,7.4,4.1l20.7,49.6c1.9,4.5,3.4,8.5,5,12.4c1.4-3.7,3.2-7.1,5-11.6l19-50.4
		c1-2.6,4.3-4.1,7.4-4.1h24c2.5,0,5.3,0.7,6.6,2.5C618.9,469.3,619.1,471.3,618.3,473.3z M170.9,467.5c0.7-0.8,1.4-2,2.5-2.5
		c1-0.5,2.1,0,3.3,0h25.6c3.2,0,5.7,1.4,6.6,4.1l18.2,50.4c1.5,4.2,2.8,8.6,4.1,12.4c1.6-3.8,3.1-8.1,5-12.4l22.3-50.4
		c1-2.5,4.4-4.1,7.5-4.1h20.7c3,0,5.6,1.7,6.6,4.1l21.5,49.6c1.9,4.5,3.4,8.5,5,12.4c1.3-3.7,2.4-7.1,4.1-11.6l19.8-50.4
		c1-2.6,3.5-4.1,6.6-4.1h24.8c2.4,0,4.4,0.7,5.8,2.5s1.7,3.8,0.8,5.8l-43.8,100c-1,2.5-3.6,4.1-6.6,4.1h-23.2c-3,0-5.6-1.7-6.6-4.1
		l-20.7-48c-2.1-4.8-4-8.8-5.8-13.2c-2,5-3.8,9.7-5.8,14.1L247,573.3c-1.1,2.4-3.7,4.1-6.6,4.1h-22.3c-3.1,0-5.6-1.7-6.6-4.1
		l-41.3-100C169.3,471.3,169.6,469.3,170.9,467.5z M510.8,864.4c-152.8,0-282.7-100.1-327.4-238.1h56.2c7.4,19,17.1,36.9,28.1,53.7
		c1.7-0.3,3.2-0.8,5-0.8h49.6c-5.3-16.7-8.8-34.6-12.4-52.9h53.7c4.1,18.5,8.9,36.5,14.9,52.9H643c6-16.4,10.9-34.4,14.9-52.9h53.7
		c-3.6,18.3-7.1,36.2-12.4,52.9h49.6c1.8,0,3.3,0.5,5,0.8c11.1-16.8,20.7-34.7,28.1-53.7h56.2C793.4,764.2,663.5,864.4,510.8,864.4z
		 M853.9,473.3l-43.8,100c-1.1,2.5-3.6,4.1-6.6,4.1h-23.2c-3,0-5.6-1.7-6.6-4.1l-20.7-48c-2.1-4.8-4-8.8-5.8-13.2
		c-2,5-3.8,9.7-5.8,14.1l-22.3,47.1c-1.1,2.4-3.7,4.1-6.6,4.1h-22.3c-3.1,0-5.6-1.7-6.6-4.1l-41.3-100c-0.7-2-0.5-4,0.8-5.8
		c0.7-0.8,1.5-2,2.5-2.5s2.1,0,3.3,0h25.6c3.2,0,5.7,1.4,6.6,4.1l18.2,50.4c1.5,4.2,2.8,8.6,4.1,12.4c1.5-3.8,3.1-8.1,5-12.4
		l22.3-50.4c1-2.5,3.6-4.1,6.6-4.1h21.5c3,0,5.6,1.7,6.6,4.1l21.5,49.6c1.9,4.5,3.4,8.5,5,12.4c1.3-3.7,2.4-7.1,4.1-11.6l19.8-50.4
		c0.9-2.6,3.5-4.1,6.6-4.1h24.8c2.5,0,4.4,0.7,5.8,2.5C854.4,469.3,854.7,471.3,853.9,473.3z"/>
	<path d="M656.3,772.6c19.5-11.4,37.4-25.1,53.7-40.5h-31.4C671.8,746.5,664.4,760.2,656.3,772.6z"/>
	<path d="M710,308.8c-16.3-15.4-34.2-29.1-53.7-40.5c8.2,12.4,15.5,26.2,22.3,40.5H710z"/>
</g>
</svg>
