<svg xmlns="http://www.w3.org/2000/svg" width="24.521" height="24.521" viewBox="0 0 24.521 24.521">
  <path id="Path_140" data-name="Path 140" d="M16.93,1.477l-1.453.593.415,1.779a4.5,4.5,0,0,0-.949.949l-1.809-.415-.593,1.423,1.571.978a4.489,4.489,0,0,0-.03,1.334L12.542,9.1l.563,1.423,1.809-.385a4.47,4.47,0,0,0,.949.919l-.445,1.809,1.423.593,1.008-1.571a4.469,4.469,0,0,0,1.335,0l.978,1.571,1.423-.563-.415-1.809a4.627,4.627,0,0,0,.949-.949l1.808.415.593-1.423-1.572-.978a4.389,4.389,0,0,0,0-1.3l1.572-1.008-.593-1.423-1.808.415a4.371,4.371,0,0,0-.919-.949L21.615,2.1l-1.423-.593-.978,1.542a4.469,4.469,0,0,0-1.335,0Zm1.6,3.855a2.141,2.141,0,1,1-1.987,1.3A2.147,2.147,0,0,1,18.532,5.331ZM7.027,9.9l-.385,2.372a5.845,5.845,0,0,0-1.6.652L3.084,11.528,1.661,12.951l1.364,1.957a6.043,6.043,0,0,0-.652,1.631L0,16.925v2.016l2.372.415a5.626,5.626,0,0,0,.652,1.6L1.631,22.914l1.423,1.424,1.987-1.364a5.782,5.782,0,0,0,1.6.652L7.027,26H9.043l.415-2.372a5.909,5.909,0,0,0,1.6-.682l1.987,1.394,1.423-1.424-1.423-1.957a5.889,5.889,0,0,0,.682-1.6l2.372-.415V16.925l-2.372-.385a5.941,5.941,0,0,0-.682-1.6l1.423-1.987-1.453-1.423L11.06,12.951a5.858,5.858,0,0,0-1.6-.682L9.043,9.9Zm1.038,5.248a2.8,2.8,0,0,1,0,5.6,2.8,2.8,0,1,1,0-5.6Z" transform="translate(0 -1.477)"/>
</svg>
